<svg xmlns="http://www.w3.org/2000/svg" width="1400" height="1190" viewBox="0 0 1400 1190">
<rect width="1400" height="1190" fill="#faf9f6"/>
<style>text{font-family:Arial,sans-serif;text-anchor:middle;fill:#233344} .label{paint-order:stroke;stroke:#faf9f6;stroke-width:4px;stroke-linejoin:round}</style>
<text x="700.00" y="36.00" font-size="26" font-weight="bold">M1 FIXED ACCEPTANCE BOARD</text>
<text x="700.00" y="64.00" font-size="16" >Authored test fixture | after setup C16 | 19 tiles / 54 vertices / 72 edges</text>
<text x="700.00" y="89.00" font-size="15" >T = tile     V = vertex     E = edge     Colored circles/roads = initial placements</text>
<polygon points="509.47,140.00 604.74,195.00 604.74,305.00 509.47,360.00 414.21,305.00 414.21,195.00" fill="#d1e5ce"/>
<text x="509.47" y="224.00" font-size="16" >T01</text>
<text x="509.47" y="246.00" font-size="15" >wood</text>
<text x="509.47" y="277.00" font-size="23" font-weight="bold">5</text>
<polygon points="700.00,140.00 795.26,195.00 795.26,305.00 700.00,360.00 604.74,305.00 604.74,195.00" fill="#d1e5ce"/>
<text x="700.00" y="224.00" font-size="16" >T02</text>
<text x="700.00" y="246.00" font-size="15" >wood</text>
<text x="700.00" y="277.00" font-size="23" font-weight="bold">5</text>
<polygon points="890.53,140.00 985.79,195.00 985.79,305.00 890.53,360.00 795.26,305.00 795.26,195.00" fill="#e4edc4"/>
<text x="890.53" y="224.00" font-size="16" >T03</text>
<text x="890.53" y="246.00" font-size="15" >wool</text>
<text x="890.53" y="277.00" font-size="23" font-weight="bold">6</text>
<polygon points="414.21,305.00 509.47,360.00 509.47,470.00 414.21,525.00 318.95,470.00 318.95,360.00" fill="#efc9b7"/>
<text x="414.21" y="389.00" font-size="16" >T04</text>
<text x="414.21" y="411.00" font-size="15" >brick</text>
<text x="414.21" y="442.00" font-size="23" font-weight="bold">3</text>
<polygon points="604.74,305.00 700.00,360.00 700.00,470.00 604.74,525.00 509.47,470.00 509.47,360.00" fill="#d1e5ce"/>
<text x="604.74" y="389.00" font-size="16" >T05</text>
<text x="604.74" y="411.00" font-size="15" >wood</text>
<text x="604.74" y="442.00" font-size="23" font-weight="bold">9</text>
<polygon points="795.26,305.00 890.53,360.00 890.53,470.00 795.26,525.00 700.00,470.00 700.00,360.00" fill="#d4dce6"/>
<text x="795.26" y="389.00" font-size="16" >T06</text>
<text x="795.26" y="411.00" font-size="15" >ore</text>
<text x="795.26" y="442.00" font-size="23" font-weight="bold">10</text>
<polygon points="985.79,305.00 1081.05,360.00 1081.05,470.00 985.79,525.00 890.53,470.00 890.53,360.00" fill="#f4e3a5"/>
<text x="985.79" y="389.00" font-size="16" >T07</text>
<text x="985.79" y="411.00" font-size="15" >wheat</text>
<text x="985.79" y="442.00" font-size="23" font-weight="bold">2</text>
<polygon points="318.95,470.00 414.21,525.00 414.21,635.00 318.95,690.00 223.69,635.00 223.69,525.00" fill="#f4e3a5"/>
<text x="318.95" y="554.00" font-size="16" >T08</text>
<text x="318.95" y="576.00" font-size="15" >wheat</text>
<text x="318.95" y="607.00" font-size="23" font-weight="bold">8</text>
<polygon points="509.47,470.00 604.74,525.00 604.74,635.00 509.47,690.00 414.21,635.00 414.21,525.00" fill="#e4edc4"/>
<text x="509.47" y="554.00" font-size="16" >T09</text>
<text x="509.47" y="576.00" font-size="15" >wool</text>
<text x="509.47" y="607.00" font-size="23" font-weight="bold">4</text>
<polygon points="700.00,470.00 795.26,525.00 795.26,635.00 700.00,690.00 604.74,635.00 604.74,525.00" fill="#eadfc9"/>
<text x="700.00" y="554.00" font-size="16" >T10</text>
<text x="700.00" y="576.00" font-size="15" >desert</text>
<text x="700.00" y="607.00" font-size="23" font-weight="bold">ROBBER</text>
<polygon points="890.53,470.00 985.79,525.00 985.79,635.00 890.53,690.00 795.26,635.00 795.26,525.00" fill="#efc9b7"/>
<text x="890.53" y="554.00" font-size="16" >T11</text>
<text x="890.53" y="576.00" font-size="15" >brick</text>
<text x="890.53" y="607.00" font-size="23" font-weight="bold">8</text>
<polygon points="1081.05,470.00 1176.31,525.00 1176.31,635.00 1081.05,690.00 985.79,635.00 985.79,525.00" fill="#e4edc4"/>
<text x="1081.05" y="554.00" font-size="16" >T12</text>
<text x="1081.05" y="576.00" font-size="15" >wool</text>
<text x="1081.05" y="607.00" font-size="23" font-weight="bold">9</text>
<polygon points="414.21,635.00 509.47,690.00 509.47,800.00 414.21,855.00 318.95,800.00 318.95,690.00" fill="#d4dce6"/>
<text x="414.21" y="719.00" font-size="16" >T13</text>
<text x="414.21" y="741.00" font-size="15" >ore</text>
<text x="414.21" y="772.00" font-size="23" font-weight="bold">11</text>
<polygon points="604.74,635.00 700.00,690.00 700.00,800.00 604.74,855.00 509.47,800.00 509.47,690.00" fill="#f4e3a5"/>
<text x="604.74" y="719.00" font-size="16" >T14</text>
<text x="604.74" y="741.00" font-size="15" >wheat</text>
<text x="604.74" y="772.00" font-size="23" font-weight="bold">10</text>
<polygon points="795.26,635.00 890.53,690.00 890.53,800.00 795.26,855.00 700.00,800.00 700.00,690.00" fill="#e4edc4"/>
<text x="795.26" y="719.00" font-size="16" >T15</text>
<text x="795.26" y="741.00" font-size="15" >wool</text>
<text x="795.26" y="772.00" font-size="23" font-weight="bold">3</text>
<polygon points="985.79,635.00 1081.05,690.00 1081.05,800.00 985.79,855.00 890.53,800.00 890.53,690.00" fill="#d4dce6"/>
<text x="985.79" y="719.00" font-size="16" >T16</text>
<text x="985.79" y="741.00" font-size="15" >ore</text>
<text x="985.79" y="772.00" font-size="23" font-weight="bold">4</text>
<polygon points="509.47,800.00 604.74,855.00 604.74,965.00 509.47,1020.00 414.21,965.00 414.21,855.00" fill="#efc9b7"/>
<text x="509.47" y="884.00" font-size="16" >T17</text>
<text x="509.47" y="906.00" font-size="15" >brick</text>
<text x="509.47" y="937.00" font-size="23" font-weight="bold">6</text>
<polygon points="700.00,800.00 795.26,855.00 795.26,965.00 700.00,1020.00 604.74,965.00 604.74,855.00" fill="#f4e3a5"/>
<text x="700.00" y="884.00" font-size="16" >T18</text>
<text x="700.00" y="906.00" font-size="15" >wheat</text>
<text x="700.00" y="937.00" font-size="23" font-weight="bold">11</text>
<polygon points="890.53,800.00 985.79,855.00 985.79,965.00 890.53,1020.00 795.26,965.00 795.26,855.00" fill="#d1e5ce"/>
<text x="890.53" y="884.00" font-size="16" >T19</text>
<text x="890.53" y="906.00" font-size="15" >wood</text>
<text x="890.53" y="937.00" font-size="23" font-weight="bold">12</text>
<line x1="509.47" y1="140.00" x2="414.21" y2="195.00" stroke="#8e979b" stroke-width="1.6" stroke-linecap="round" />
<line x1="509.47" y1="140.00" x2="604.74" y2="195.00" stroke="#8e979b" stroke-width="1.6" stroke-linecap="round" />
<line x1="700.00" y1="140.00" x2="604.74" y2="195.00" stroke="#8e979b" stroke-width="1.6" stroke-linecap="round" />
<line x1="700.00" y1="140.00" x2="795.26" y2="195.00" stroke="#8e979b" stroke-width="1.6" stroke-linecap="round" />
<line x1="890.53" y1="140.00" x2="795.26" y2="195.00" stroke="#8e979b" stroke-width="1.6" stroke-linecap="round" />
<line x1="890.53" y1="140.00" x2="985.79" y2="195.00" stroke="#8e979b" stroke-width="1.6" stroke-linecap="round" />
<line x1="414.21" y1="195.00" x2="414.21" y2="305.00" stroke="#8e979b" stroke-width="1.6" stroke-linecap="round" />
<line x1="604.74" y1="195.00" x2="604.74" y2="305.00" stroke="#8e979b" stroke-width="1.6" stroke-linecap="round" />
<line x1="795.26" y1="195.00" x2="795.26" y2="305.00" stroke="#8e979b" stroke-width="1.6" stroke-linecap="round" />
<line x1="985.79" y1="195.00" x2="985.79" y2="305.00" stroke="#8e979b" stroke-width="1.6" stroke-linecap="round" />
<line x1="414.21" y1="305.00" x2="318.95" y2="360.00" stroke="#8e979b" stroke-width="1.6" stroke-linecap="round" />
<line x1="414.21" y1="305.00" x2="509.47" y2="360.00" stroke="#8e979b" stroke-width="1.6" stroke-linecap="round" />
<line x1="604.74" y1="305.00" x2="509.47" y2="360.00" stroke="#8e979b" stroke-width="1.6" stroke-linecap="round" />
<line x1="604.74" y1="305.00" x2="700.00" y2="360.00" stroke="#8e979b" stroke-width="1.6" stroke-linecap="round" />
<line x1="795.26" y1="305.00" x2="700.00" y2="360.00" stroke="#8e979b" stroke-width="1.6" stroke-linecap="round" />
<line x1="795.26" y1="305.00" x2="890.53" y2="360.00" stroke="#8e979b" stroke-width="1.6" stroke-linecap="round" />
<line x1="985.79" y1="305.00" x2="890.53" y2="360.00" stroke="#8e979b" stroke-width="1.6" stroke-linecap="round" />
<line x1="985.79" y1="305.00" x2="1081.05" y2="360.00" stroke="#8e979b" stroke-width="1.6" stroke-linecap="round" />
<line x1="318.95" y1="360.00" x2="318.95" y2="470.00" stroke="#8e979b" stroke-width="1.6" stroke-linecap="round" />
<line x1="509.47" y1="360.00" x2="509.47" y2="470.00" stroke="#8e979b" stroke-width="1.6" stroke-linecap="round" />
<line x1="700.00" y1="360.00" x2="700.00" y2="470.00" stroke="#8e979b" stroke-width="1.6" stroke-linecap="round" />
<line x1="890.53" y1="360.00" x2="890.53" y2="470.00" stroke="#8e979b" stroke-width="1.6" stroke-linecap="round" />
<line x1="1081.05" y1="360.00" x2="1081.05" y2="470.00" stroke="#8e979b" stroke-width="1.6" stroke-linecap="round" />
<line x1="318.95" y1="470.00" x2="223.69" y2="525.00" stroke="#8e979b" stroke-width="1.6" stroke-linecap="round" />
<line x1="318.95" y1="470.00" x2="414.21" y2="525.00" stroke="#8e979b" stroke-width="1.6" stroke-linecap="round" />
<line x1="509.47" y1="470.00" x2="414.21" y2="525.00" stroke="#8e979b" stroke-width="1.6" stroke-linecap="round" />
<line x1="509.47" y1="470.00" x2="604.74" y2="525.00" stroke="#8e979b" stroke-width="1.6" stroke-linecap="round" />
<line x1="700.00" y1="470.00" x2="604.74" y2="525.00" stroke="#8e979b" stroke-width="1.6" stroke-linecap="round" />
<line x1="700.00" y1="470.00" x2="795.26" y2="525.00" stroke="#8e979b" stroke-width="1.6" stroke-linecap="round" />
<line x1="890.53" y1="470.00" x2="795.26" y2="525.00" stroke="#8e979b" stroke-width="1.6" stroke-linecap="round" />
<line x1="890.53" y1="470.00" x2="985.79" y2="525.00" stroke="#8e979b" stroke-width="1.6" stroke-linecap="round" />
<line x1="1081.05" y1="470.00" x2="985.79" y2="525.00" stroke="#8e979b" stroke-width="1.6" stroke-linecap="round" />
<line x1="1081.05" y1="470.00" x2="1176.31" y2="525.00" stroke="#8e979b" stroke-width="1.6" stroke-linecap="round" />
<line x1="223.69" y1="525.00" x2="223.69" y2="635.00" stroke="#8e979b" stroke-width="1.6" stroke-linecap="round" />
<line x1="414.21" y1="525.00" x2="414.21" y2="635.00" stroke="#8e979b" stroke-width="1.6" stroke-linecap="round" />
<line x1="604.74" y1="525.00" x2="604.74" y2="635.00" stroke="#8e979b" stroke-width="1.6" stroke-linecap="round" />
<line x1="795.26" y1="525.00" x2="795.26" y2="635.00" stroke="#8e979b" stroke-width="1.6" stroke-linecap="round" />
<line x1="985.79" y1="525.00" x2="985.79" y2="635.00" stroke="#8e979b" stroke-width="1.6" stroke-linecap="round" />
<line x1="1176.31" y1="525.00" x2="1176.31" y2="635.00" stroke="#8e979b" stroke-width="1.6" stroke-linecap="round" />
<line x1="223.69" y1="635.00" x2="318.95" y2="690.00" stroke="#8e979b" stroke-width="1.6" stroke-linecap="round" />
<line x1="414.21" y1="635.00" x2="318.95" y2="690.00" stroke="#8e979b" stroke-width="1.6" stroke-linecap="round" />
<line x1="414.21" y1="635.00" x2="509.47" y2="690.00" stroke="#8e979b" stroke-width="1.6" stroke-linecap="round" />
<line x1="604.74" y1="635.00" x2="509.47" y2="690.00" stroke="#8e979b" stroke-width="1.6" stroke-linecap="round" />
<line x1="604.74" y1="635.00" x2="700.00" y2="690.00" stroke="#8e979b" stroke-width="1.6" stroke-linecap="round" />
<line x1="795.26" y1="635.00" x2="700.00" y2="690.00" stroke="#8e979b" stroke-width="1.6" stroke-linecap="round" />
<line x1="795.26" y1="635.00" x2="890.53" y2="690.00" stroke="#8e979b" stroke-width="1.6" stroke-linecap="round" />
<line x1="985.79" y1="635.00" x2="890.53" y2="690.00" stroke="#8e979b" stroke-width="1.6" stroke-linecap="round" />
<line x1="985.79" y1="635.00" x2="1081.05" y2="690.00" stroke="#8e979b" stroke-width="1.6" stroke-linecap="round" />
<line x1="1176.31" y1="635.00" x2="1081.05" y2="690.00" stroke="#8e979b" stroke-width="1.6" stroke-linecap="round" />
<line x1="318.95" y1="690.00" x2="318.95" y2="800.00" stroke="#8e979b" stroke-width="1.6" stroke-linecap="round" />
<line x1="509.47" y1="690.00" x2="509.47" y2="800.00" stroke="#8e979b" stroke-width="1.6" stroke-linecap="round" />
<line x1="700.00" y1="690.00" x2="700.00" y2="800.00" stroke="#8e979b" stroke-width="1.6" stroke-linecap="round" />
<line x1="890.53" y1="690.00" x2="890.53" y2="800.00" stroke="#8e979b" stroke-width="1.6" stroke-linecap="round" />
<line x1="1081.05" y1="690.00" x2="1081.05" y2="800.00" stroke="#8e979b" stroke-width="1.6" stroke-linecap="round" />
<line x1="318.95" y1="800.00" x2="414.21" y2="855.00" stroke="#8e979b" stroke-width="1.6" stroke-linecap="round" />
<line x1="509.47" y1="800.00" x2="414.21" y2="855.00" stroke="#8e979b" stroke-width="1.6" stroke-linecap="round" />
<line x1="509.47" y1="800.00" x2="604.74" y2="855.00" stroke="#8e979b" stroke-width="1.6" stroke-linecap="round" />
<line x1="700.00" y1="800.00" x2="604.74" y2="855.00" stroke="#8e979b" stroke-width="1.6" stroke-linecap="round" />
<line x1="700.00" y1="800.00" x2="795.26" y2="855.00" stroke="#8e979b" stroke-width="1.6" stroke-linecap="round" />
<line x1="890.53" y1="800.00" x2="795.26" y2="855.00" stroke="#8e979b" stroke-width="1.6" stroke-linecap="round" />
<line x1="890.53" y1="800.00" x2="985.79" y2="855.00" stroke="#8e979b" stroke-width="1.6" stroke-linecap="round" />
<line x1="1081.05" y1="800.00" x2="985.79" y2="855.00" stroke="#8e979b" stroke-width="1.6" stroke-linecap="round" />
<line x1="414.21" y1="855.00" x2="414.21" y2="965.00" stroke="#8e979b" stroke-width="1.6" stroke-linecap="round" />
<line x1="604.74" y1="855.00" x2="604.74" y2="965.00" stroke="#8e979b" stroke-width="1.6" stroke-linecap="round" />
<line x1="795.26" y1="855.00" x2="795.26" y2="965.00" stroke="#8e979b" stroke-width="1.6" stroke-linecap="round" />
<line x1="985.79" y1="855.00" x2="985.79" y2="965.00" stroke="#8e979b" stroke-width="1.6" stroke-linecap="round" />
<line x1="414.21" y1="965.00" x2="509.47" y2="1020.00" stroke="#8e979b" stroke-width="1.6" stroke-linecap="round" />
<line x1="604.74" y1="965.00" x2="509.47" y2="1020.00" stroke="#8e979b" stroke-width="1.6" stroke-linecap="round" />
<line x1="604.74" y1="965.00" x2="700.00" y2="1020.00" stroke="#8e979b" stroke-width="1.6" stroke-linecap="round" />
<line x1="795.26" y1="965.00" x2="700.00" y2="1020.00" stroke="#8e979b" stroke-width="1.6" stroke-linecap="round" />
<line x1="795.26" y1="965.00" x2="890.53" y2="1020.00" stroke="#8e979b" stroke-width="1.6" stroke-linecap="round" />
<line x1="985.79" y1="965.00" x2="890.53" y2="1020.00" stroke="#8e979b" stroke-width="1.6" stroke-linecap="round" />
<line x1="890.53" y1="800.00" x2="795.26" y2="855.00" stroke="#a23f2a" stroke-width="7" stroke-linecap="round" />
<line x1="985.79" y1="305.00" x2="890.53" y2="360.00" stroke="#1a60a6" stroke-width="7" stroke-linecap="round" />
<line x1="414.21" y1="635.00" x2="318.95" y2="690.00" stroke="#754eaa" stroke-width="7" stroke-linecap="round" />
<line x1="509.47" y1="800.00" x2="414.21" y2="855.00" stroke="#167a67" stroke-width="7" stroke-linecap="round" />
<line x1="985.79" y1="635.00" x2="1081.05" y2="690.00" stroke="#167a67" stroke-width="7" stroke-linecap="round" />
<line x1="509.47" y1="470.00" x2="604.74" y2="525.00" stroke="#754eaa" stroke-width="7" stroke-linecap="round" />
<line x1="604.74" y1="965.00" x2="700.00" y2="1020.00" stroke="#1a60a6" stroke-width="7" stroke-linecap="round" />
<line x1="604.74" y1="195.00" x2="604.74" y2="305.00" stroke="#a23f2a" stroke-width="7" stroke-linecap="round" />
<line x1="795.26" y1="855.00" x2="795.26" y2="965.00" stroke="#a23f2a" stroke-width="6" stroke-linecap="round" stroke-dasharray="9 7"/>
<text x="455.84" y="161.11" font-size="12" class="label">E01</text>
<text x="551.11" y="181.89" font-size="12" class="label">E02</text>
<text x="646.37" y="161.11" font-size="12" class="label">E03</text>
<text x="741.63" y="181.89" font-size="12" class="label">E04</text>
<text x="836.89" y="161.11" font-size="12" class="label">E05</text>
<text x="932.16" y="181.89" font-size="12" class="label">E06</text>
<text x="402.21" y="254.00" font-size="12" class="label">E07</text>
<text x="592.74" y="254.00" font-size="12" class="label">E08</text>
<text x="783.26" y="254.00" font-size="12" class="label">E09</text>
<text x="973.79" y="254.00" font-size="12" class="label">E10</text>
<text x="360.58" y="326.11" font-size="12" class="label">E11</text>
<text x="455.84" y="346.89" font-size="12" class="label">E12</text>
<text x="551.11" y="326.11" font-size="12" class="label">E13</text>
<text x="646.37" y="346.89" font-size="12" class="label">E14</text>
<text x="741.63" y="326.11" font-size="12" class="label">E15</text>
<text x="836.89" y="346.89" font-size="12" class="label">E16</text>
<text x="932.16" y="326.11" font-size="12" class="label">E17</text>
<text x="1027.42" y="346.89" font-size="12" class="label">E18</text>
<text x="306.95" y="419.00" font-size="12" class="label">E19</text>
<text x="497.47" y="419.00" font-size="12" class="label">E20</text>
<text x="688.00" y="419.00" font-size="12" class="label">E21</text>
<text x="878.53" y="419.00" font-size="12" class="label">E22</text>
<text x="1069.05" y="419.00" font-size="12" class="label">E23</text>
<text x="265.32" y="491.11" font-size="12" class="label">E24</text>
<text x="360.58" y="511.89" font-size="12" class="label">E25</text>
<text x="455.84" y="491.11" font-size="12" class="label">E26</text>
<text x="551.11" y="511.89" font-size="12" class="label">E27</text>
<text x="646.37" y="491.11" font-size="12" class="label">E28</text>
<text x="741.63" y="511.89" font-size="12" class="label">E29</text>
<text x="836.89" y="491.11" font-size="12" class="label">E30</text>
<text x="932.16" y="511.89" font-size="12" class="label">E31</text>
<text x="1027.42" y="491.11" font-size="12" class="label">E32</text>
<text x="1122.68" y="511.89" font-size="12" class="label">E33</text>
<text x="211.69" y="584.00" font-size="12" class="label">E34</text>
<text x="402.21" y="584.00" font-size="12" class="label">E35</text>
<text x="592.74" y="584.00" font-size="12" class="label">E36</text>
<text x="783.26" y="584.00" font-size="12" class="label">E37</text>
<text x="973.79" y="584.00" font-size="12" class="label">E38</text>
<text x="1164.31" y="584.00" font-size="12" class="label">E39</text>
<text x="265.32" y="676.89" font-size="12" class="label">E40</text>
<text x="360.58" y="656.11" font-size="12" class="label">E41</text>
<text x="455.84" y="676.89" font-size="12" class="label">E42</text>
<text x="551.11" y="656.11" font-size="12" class="label">E43</text>
<text x="646.37" y="676.89" font-size="12" class="label">E44</text>
<text x="741.63" y="656.11" font-size="12" class="label">E45</text>
<text x="836.89" y="676.89" font-size="12" class="label">E46</text>
<text x="932.16" y="656.11" font-size="12" class="label">E47</text>
<text x="1027.42" y="676.89" font-size="12" class="label">E48</text>
<text x="1122.68" y="656.11" font-size="12" class="label">E49</text>
<text x="306.95" y="749.00" font-size="12" class="label">E50</text>
<text x="497.47" y="749.00" font-size="12" class="label">E51</text>
<text x="688.00" y="749.00" font-size="12" class="label">E52</text>
<text x="878.53" y="749.00" font-size="12" class="label">E53</text>
<text x="1069.05" y="749.00" font-size="12" class="label">E54</text>
<text x="360.58" y="841.89" font-size="12" class="label">E55</text>
<text x="455.84" y="821.11" font-size="12" class="label">E56</text>
<text x="551.11" y="841.89" font-size="12" class="label">E57</text>
<text x="646.37" y="821.11" font-size="12" class="label">E58</text>
<text x="741.63" y="841.89" font-size="12" class="label">E59</text>
<text x="836.89" y="821.11" font-size="12" class="label">E60</text>
<text x="932.16" y="841.89" font-size="12" class="label">E61</text>
<text x="1027.42" y="821.11" font-size="12" class="label">E62</text>
<text x="402.21" y="914.00" font-size="12" class="label">E63</text>
<text x="592.74" y="914.00" font-size="12" class="label">E64</text>
<text x="783.26" y="914.00" font-size="12" class="label">E65</text>
<text x="973.79" y="914.00" font-size="12" class="label">E66</text>
<text x="455.84" y="1006.89" font-size="12" class="label">E67</text>
<text x="551.11" y="986.11" font-size="12" class="label">E68</text>
<text x="646.37" y="1006.89" font-size="12" class="label">E69</text>
<text x="741.63" y="986.11" font-size="12" class="label">E70</text>
<text x="836.89" y="1006.89" font-size="12" class="label">E71</text>
<text x="932.16" y="986.11" font-size="12" class="label">E72</text>
<circle cx="509.47" cy="140.00" r="3.5" fill="#344652"/>
<text x="509.47" y="121.00" font-size="13" class="label">V01</text>
<circle cx="700.00" cy="140.00" r="3.5" fill="#344652"/>
<text x="700.00" y="121.00" font-size="13" class="label">V02</text>
<circle cx="890.53" cy="140.00" r="3.5" fill="#344652"/>
<text x="890.53" y="121.00" font-size="13" class="label">V03</text>
<circle cx="414.21" cy="195.00" r="3.5" fill="#344652"/>
<text x="414.21" y="176.00" font-size="13" class="label">V04</text>
<circle cx="604.74" cy="195.00" r="3.5" fill="#344652"/>
<text x="604.74" y="176.00" font-size="13" class="label">V05</text>
<circle cx="795.26" cy="195.00" r="3.5" fill="#344652"/>
<text x="795.26" y="176.00" font-size="13" class="label">V06</text>
<circle cx="985.79" cy="195.00" r="3.5" fill="#344652"/>
<text x="985.79" y="176.00" font-size="13" class="label">V07</text>
<circle cx="414.21" cy="305.00" r="3.5" fill="#344652"/>
<text x="414.21" y="286.00" font-size="13" class="label">V08</text>
<circle cx="604.74" cy="305.00" r="14" fill="#a23f2a"/>
<text x="604.74" y="310.00" font-size="14" style="fill:white" font-weight="bold">8</text>
<text x="604.74" y="286.00" font-size="13" class="label">V09</text>
<circle cx="795.26" cy="305.00" r="3.5" fill="#344652"/>
<text x="795.26" y="286.00" font-size="13" class="label">V10</text>
<circle cx="985.79" cy="305.00" r="3.5" fill="#344652"/>
<text x="985.79" y="286.00" font-size="13" class="label">V11</text>
<circle cx="318.95" cy="360.00" r="3.5" fill="#344652"/>
<text x="318.95" y="341.00" font-size="13" class="label">V12</text>
<circle cx="509.47" cy="360.00" r="3.5" fill="#344652"/>
<text x="509.47" y="341.00" font-size="13" class="label">V13</text>
<circle cx="700.00" cy="360.00" r="3.5" fill="#344652"/>
<text x="700.00" y="341.00" font-size="13" class="label">V14</text>
<circle cx="890.53" cy="360.00" r="14" fill="#1a60a6"/>
<text x="890.53" y="365.00" font-size="14" style="fill:white" font-weight="bold">2</text>
<text x="890.53" y="341.00" font-size="13" class="label">V15</text>
<circle cx="1081.05" cy="360.00" r="3.5" fill="#344652"/>
<text x="1081.05" y="341.00" font-size="13" class="label">V16</text>
<circle cx="318.95" cy="470.00" r="3.5" fill="#344652"/>
<text x="318.95" y="451.00" font-size="13" class="label">V17</text>
<circle cx="509.47" cy="470.00" r="14" fill="#754eaa"/>
<text x="509.47" y="475.00" font-size="14" style="fill:white" font-weight="bold">6</text>
<text x="509.47" y="451.00" font-size="13" class="label">V18</text>
<circle cx="700.00" cy="470.00" r="3.5" fill="#344652"/>
<text x="700.00" y="451.00" font-size="13" class="label">V19</text>
<circle cx="890.53" cy="470.00" r="3.5" fill="#344652"/>
<text x="890.53" y="451.00" font-size="13" class="label">V20</text>
<circle cx="1081.05" cy="470.00" r="3.5" fill="#344652"/>
<text x="1081.05" y="451.00" font-size="13" class="label">V21</text>
<circle cx="223.69" cy="525.00" r="3.5" fill="#344652"/>
<text x="223.69" y="506.00" font-size="13" class="label">V22</text>
<circle cx="414.21" cy="525.00" r="3.5" fill="#344652"/>
<text x="414.21" y="506.00" font-size="13" class="label">V23</text>
<circle cx="604.74" cy="525.00" r="3.5" fill="#344652"/>
<text x="604.74" y="506.00" font-size="13" class="label">V24</text>
<circle cx="795.26" cy="525.00" r="3.5" fill="#344652"/>
<text x="795.26" y="506.00" font-size="13" class="label">V25</text>
<circle cx="985.79" cy="525.00" r="3.5" fill="#344652"/>
<text x="985.79" y="506.00" font-size="13" class="label">V26</text>
<circle cx="1176.31" cy="525.00" r="3.5" fill="#344652"/>
<text x="1176.31" y="506.00" font-size="13" class="label">V27</text>
<circle cx="223.69" cy="635.00" r="3.5" fill="#344652"/>
<text x="223.69" y="616.00" font-size="13" class="label">V28</text>
<circle cx="414.21" cy="635.00" r="14" fill="#754eaa"/>
<text x="414.21" y="640.00" font-size="14" style="fill:white" font-weight="bold">3</text>
<text x="414.21" y="616.00" font-size="13" class="label">V29</text>
<circle cx="604.74" cy="635.00" r="3.5" fill="#344652"/>
<text x="604.74" y="616.00" font-size="13" class="label">V30</text>
<circle cx="795.26" cy="635.00" r="3.5" fill="#344652"/>
<text x="795.26" y="616.00" font-size="13" class="label">V31</text>
<circle cx="985.79" cy="635.00" r="14" fill="#167a67"/>
<text x="985.79" y="640.00" font-size="14" style="fill:white" font-weight="bold">5</text>
<text x="985.79" y="616.00" font-size="13" class="label">V32</text>
<circle cx="1176.31" cy="635.00" r="3.5" fill="#344652"/>
<text x="1176.31" y="616.00" font-size="13" class="label">V33</text>
<circle cx="318.95" cy="690.00" r="3.5" fill="#344652"/>
<text x="318.95" y="671.00" font-size="13" class="label">V34</text>
<circle cx="509.47" cy="690.00" r="3.5" fill="#344652"/>
<text x="509.47" y="671.00" font-size="13" class="label">V35</text>
<circle cx="700.00" cy="690.00" r="3.5" fill="#344652"/>
<text x="700.00" y="671.00" font-size="13" class="label">V36</text>
<circle cx="890.53" cy="690.00" r="3.5" fill="#344652"/>
<text x="890.53" y="671.00" font-size="13" class="label">V37</text>
<circle cx="1081.05" cy="690.00" r="3.5" fill="#344652"/>
<text x="1081.05" y="671.00" font-size="13" class="label">V38</text>
<circle cx="318.95" cy="800.00" r="3.5" fill="#344652"/>
<text x="318.95" y="781.00" font-size="13" class="label">V39</text>
<circle cx="509.47" cy="800.00" r="14" fill="#167a67"/>
<text x="509.47" y="805.00" font-size="14" style="fill:white" font-weight="bold">4</text>
<text x="509.47" y="781.00" font-size="13" class="label">V40</text>
<circle cx="700.00" cy="800.00" r="3.5" fill="#344652"/>
<text x="700.00" y="781.00" font-size="13" class="label">V41</text>
<circle cx="890.53" cy="800.00" r="14" fill="#a23f2a"/>
<text x="890.53" y="805.00" font-size="14" style="fill:white" font-weight="bold">1</text>
<text x="890.53" y="781.00" font-size="13" class="label">V42</text>
<circle cx="1081.05" cy="800.00" r="3.5" fill="#344652"/>
<text x="1081.05" y="781.00" font-size="13" class="label">V43</text>
<circle cx="414.21" cy="855.00" r="3.5" fill="#344652"/>
<text x="414.21" y="836.00" font-size="13" class="label">V44</text>
<circle cx="604.74" cy="855.00" r="3.5" fill="#344652"/>
<text x="604.74" y="836.00" font-size="13" class="label">V45</text>
<circle cx="795.26" cy="855.00" r="3.5" fill="#344652"/>
<text x="795.26" y="836.00" font-size="13" class="label">V46</text>
<circle cx="985.79" cy="855.00" r="3.5" fill="#344652"/>
<text x="985.79" y="836.00" font-size="13" class="label">V47</text>
<circle cx="414.21" cy="965.00" r="3.5" fill="#344652"/>
<text x="414.21" y="946.00" font-size="13" class="label">V48</text>
<circle cx="604.74" cy="965.00" r="14" fill="#1a60a6"/>
<text x="604.74" y="970.00" font-size="14" style="fill:white" font-weight="bold">7</text>
<text x="604.74" y="946.00" font-size="13" class="label">V49</text>
<circle cx="795.26" cy="965.00" r="3.5" fill="#344652"/>
<text x="795.26" y="946.00" font-size="13" class="label">V50</text>
<circle cx="985.79" cy="965.00" r="3.5" fill="#344652"/>
<text x="985.79" y="946.00" font-size="13" class="label">V51</text>
<circle cx="509.47" cy="1020.00" r="3.5" fill="#344652"/>
<text x="509.47" y="1001.00" font-size="13" class="label">V52</text>
<circle cx="700.00" cy="1020.00" r="3.5" fill="#344652"/>
<text x="700.00" y="1001.00" font-size="13" class="label">V53</text>
<circle cx="890.53" cy="1020.00" r="3.5" fill="#344652"/>
<text x="890.53" y="1001.00" font-size="13" class="label">V54</text>
<text x="700.00" y="1077.00" font-size="16" >Circle numbers: setup order 1-8 (P1, P2, P3, P4, P4, P3, P2, P1)</text>
<text x="700.00" y="1104.00" font-size="16" >Dashed E65: paid road built by P1 at C19; absent from the C16 position.</text>
<text x="700.00" y="1131.00" font-size="15" >Test-only map without ports. This locator is not a mesh, a game screenshot, or the official beginner layout.</text>
<text x="700.00" y="1156.00" font-size="13" >m1-fixed-four-seats-v001 / 1.0.0</text>
</svg>
